HIERARCHY
ROOT SpineBase
{
  OFFSET 0.000000 0.000000 0.000000
  CHANNELS 6 Xposition Yposition Zposition Zrotation Xrotation Yrotation
  JOINT SpineMid
  {
    OFFSET 0.000000 25.590706 0.000000
    CHANNELS 3 Zrotation Xrotation Yrotation
    JOINT SpineShoulder
    {
      OFFSET -0.127001 19.113538 -0.739863
      CHANNELS 3 Zrotation Xrotation Yrotation
      JOINT Neck
      {
        OFFSET -0.087363 6.359152 -0.566715
        CHANNELS 3 Zrotation Xrotation Yrotation
        JOINT Head
        {
          OFFSET 1.403173 10.870950 -0.374001
          CHANNELS 3 Zrotation Xrotation Yrotation
          End Site
          {
            OFFSET 0 0 0
          }
        }
      }
      JOINT ShoulderLeft
      {
        OFFSET -13.520933 -2.420280 -7.502208
        CHANNELS 3 Zrotation Xrotation Yrotation
        JOINT ElbowLeft
        {
          OFFSET -3.360203 -20.293967 -1.261506
          CHANNELS 3 Zrotation Xrotation Yrotation
          JOINT WristLeft
          {
            OFFSET -1.125670 -15.762521 -13.967792
            CHANNELS 3 Zrotation Xrotation Yrotation
            JOINT HandLeft
            {
              OFFSET 1.975482 -5.371103 0.611115
              CHANNELS 3 Zrotation Xrotation Yrotation
              JOINT HandTipLeft
              {
                OFFSET 2.521626 -4.606707 -2.287598
                CHANNELS 3 Zrotation Xrotation Yrotation
                End Site
                {
                  OFFSET 0 0 0
                }
              }
              JOINT ThumbLeft
              {
                OFFSET -3.591859 -1.443557 2.215115
                CHANNELS 3 Zrotation Xrotation Yrotation
                End Site
                {
                  OFFSET 0 0 0
                }
              }
            }
          }
        }
      }
      JOINT ShoulderRight
      {
        OFFSET 15.345823 -3.130109 2.302159
        CHANNELS 3 Zrotation Xrotation Yrotation
        JOINT ElbowRight
        {
          OFFSET 7.256110 -20.564242 3.172947
          CHANNELS 3 Zrotation Xrotation Yrotation
          JOINT WristRight
          {
            OFFSET 4.378362 -12.378623 -11.481366
            CHANNELS 3 Zrotation Xrotation Yrotation
            JOINT HandRight
            {
              OFFSET -1.603558 -0.475950 -2.862286
              CHANNELS 3 Zrotation Xrotation Yrotation
              JOINT HandTipRight
              {
                OFFSET 0.224813 -1.241082 -5.855604
                CHANNELS 3 Zrotation Xrotation Yrotation
                End Site
                {
                  OFFSET 0 0 0
                }
              }
              JOINT ThumbRight
              {
                OFFSET 2.972487 2.192570 -3.709018
                CHANNELS 3 Zrotation Xrotation Yrotation
                End Site
                {
                  OFFSET 0 0 0
                }
              }
            }
          }
        }
      }
    }
  }
  JOINT HipLeft
  {
    OFFSET -6.290732 1.053660 -4.210650
    CHANNELS 3 Zrotation Xrotation Yrotation
    JOINT KneeLeft
    {
      OFFSET 8.246126 -0.661212 -29.275826
      CHANNELS 3 Zrotation Xrotation Yrotation
      JOINT AnkleLeft
      {
        OFFSET 2.137104 -36.926626 8.224120
        CHANNELS 3 Zrotation Xrotation Yrotation
        JOINT FootLeft
        {
          OFFSET 3.171395 -4.863383 -8.312555
          CHANNELS 3 Zrotation Xrotation Yrotation
          End Site
          {
            OFFSET 0 0 0
          }
        }
      }
    }
  }
  JOINT HipRight
  {
    OFFSET 5.690325 0.672137 -1.719609
    CHANNELS 3 Zrotation Xrotation Yrotation
    JOINT KneeRight
    {
      OFFSET 23.914245 2.366771 -16.245039
      CHANNELS 3 Zrotation Xrotation Yrotation
      JOINT AnkleRight
      {
        OFFSET -1.500284 -36.303729 1.748434
        CHANNELS 3 Zrotation Xrotation Yrotation
        JOINT FootRight
        {
          OFFSET -0.186873 -7.178916 -6.704500
          CHANNELS 3 Zrotation Xrotation Yrotation
          End Site
          {
            OFFSET 0 0 0
          }
        }
      }
    }
  }
}
MOTION
Frames: 14
Frame Time: 0.033333
42.142754 31.286781 374.578950 30.313919 46.969135 -43.560044 -0.808323 -1.043989 30.943050 1.707437 1.533676 2.282521 -7.127455 -11.309215 -8.928873 0.000000 0.000000 0.000000 -23.125049 62.622968 -41.525804 -118.672612 34.127673 83.365321 24.680154 14.470255 -54.187800 -44.203935 3.716595 -32.048594 0.000000 0.000000 0.000000 0.000000 0.000000 0.000000 -2.851228 32.028390 26.881888 -38.229933 -8.047261 -33.794984 -5.517515 -54.165617 -40.488135 -24.430273 47.414026 30.469243 0.000000 0.000000 0.000000 0.000000 0.000000 0.000000 11.635719 -17.154158 -11.817528 -32.484625 -3.480347 38.312356 -4.317644 -56.623425 -5.201534 0.000000 0.000000 0.000000 13.710788 -40.364947 37.390047 -16.720971 2.892155 -0.457201 9.765329 0.362754 -2.725536 0.000000 0.000000 0.000000
41.495220 31.511903 374.990307 29.550033 47.243982 -45.741595 -0.673758 -1.173688 33.397057 1.627048 1.614706 2.195106 -4.371491 -12.734987 -6.969497 0.000000 0.000000 0.000000 -22.973769 62.216348 -40.852175 -118.934959 30.904126 74.566385 11.909320 18.076412 -25.887702 -33.808470 20.352267 -37.070674 0.000000 0.000000 0.000000 0.000000 0.000000 0.000000 -3.648814 32.580725 27.188927 -38.072225 -9.132541 -33.804712 -6.132270 -56.776304 -37.030461 -12.548501 37.956420 14.845121 0.000000 0.000000 0.000000 0.000000 0.000000 0.000000 6.164482 -21.317514 9.040010 -17.988987 10.101180 25.771594 -16.333683 -58.664521 -19.329783 0.000000 0.000000 0.000000 16.907467 -38.003145 41.456841 -12.135204 4.081277 -0.564410 0.148545 -0.167776 -0.540617 0.000000 0.000000 0.000000
41.095898 32.036649 374.962544 29.428653 48.093262 -59.002079 -0.085025 -1.423287 46.562079 1.240960 1.313508 2.044970 -1.771446 -14.133126 -5.057609 0.000000 0.000000 0.000000 -21.587716 58.804461 -39.421374 -113.447172 30.779464 66.164920 -11.155240 24.039736 9.189154 -7.061901 32.381641 -57.905348 0.000000 0.000000 0.000000 0.000000 0.000000 0.000000 -3.916192 33.205680 27.738803 -39.095257 -9.757162 -34.348131 -5.389861 -58.755471 -37.836458 -9.252776 26.140251 9.445589 0.000000 0.000000 0.000000 0.000000 0.000000 0.000000 12.856252 -30.851048 38.176288 0.579976 19.141241 15.380622 -31.843094 -55.007095 -30.636740 0.000000 0.000000 0.000000 26.440654 -31.099527 59.112536 -12.409726 2.747687 -2.972690 -9.571258 4.588159 5.421576 0.000000 0.000000 0.000000
41.489454 32.483074 373.903980 30.529061 49.327454 -64.932274 0.171232 -1.407932 51.667077 0.474227 0.438697 1.832959 1.239673 -16.126754 -2.610911 0.000000 0.000000 0.000000 -21.912168 57.769257 -38.906570 -113.206012 27.686615 59.656735 -19.315555 28.659908 24.088441 -2.981632 27.670748 -57.163599 0.000000 0.000000 0.000000 0.000000 0.000000 0.000000 -4.341241 33.846207 28.230044 -40.705743 -10.525465 -35.272035 -4.277381 -54.780470 -36.005232 -3.548930 10.343030 2.947267 0.000000 0.000000 0.000000 0.000000 0.000000 0.000000 18.977640 -36.453456 56.161158 18.536939 14.120586 6.624673 -42.524713 -43.418369 -27.987339 0.000000 0.000000 0.000000 30.199530 -29.936471 65.040810 -14.068696 1.215389 -3.087969 -6.365025 8.339212 4.638215 0.000000 0.000000 0.000000
41.634791 32.706448 372.886371 30.786467 50.321186 -68.097186 0.227834 -1.072399 54.470294 0.244583 -0.102271 1.833213 1.932809 -17.362895 -1.827844 0.000000 0.000000 0.000000 -23.361524 58.888171 -39.364014 -115.015040 24.193035 55.062878 -20.027092 32.263796 27.553431 -9.431235 28.837627 -43.801680 0.000000 0.000000 0.000000 0.000000 0.000000 0.000000 -5.670249 34.804485 28.631741 -42.329405 -12.629137 -36.789601 -4.494404 -51.470481 -27.118792 -0.219984 3.877273 -7.455675 0.000000 0.000000 0.000000 0.000000 0.000000 0.000000 23.104886 -37.959937 66.090712 24.783554 11.468336 1.943498 -48.528861 -43.178827 -31.722858 0.000000 0.000000 0.000000 32.768432 -29.544006 68.712219 -14.119567 1.436596 -3.424382 2.571872 10.818997 -1.996207 0.000000 0.000000 0.000000
42.001491 32.382395 371.715503 30.702818 50.621824 -68.882211 -0.014383 -0.420158 55.276428 -0.188739 -0.530833 1.681903 0.814701 -17.658164 -2.521133 0.000000 0.000000 0.000000 -23.626951 59.541220 -39.717248 -123.156696 21.545892 52.580636 -26.446969 42.979984 33.405899 -16.363686 26.324190 -29.831354 0.000000 0.000000 0.000000 0.000000 0.000000 0.000000 -5.614317 35.327948 29.254449 -42.866428 -13.340274 -37.885224 -5.873125 -38.194811 -26.281578 6.466014 -7.010069 -8.140755 0.000000 0.000000 0.000000 0.000000 0.000000 0.000000 22.689128 -36.931851 67.350552 25.263330 11.148987 1.431262 -57.147910 -49.357566 -43.835497 0.000000 0.000000 0.000000 33.659382 -29.789389 69.649901 -14.082725 3.350428 -3.457176 10.304883 7.305500 -7.301142 0.000000 0.000000 0.000000
42.688402 31.707968 370.410202 30.798752 50.488094 -67.872080 -0.487663 0.108754 54.206415 -0.613145 -0.731410 1.480737 -0.403737 -17.304148 -3.506590 0.000000 0.000000 0.000000 -25.293386 58.921928 -39.013069 -150.155466 16.363288 62.286355 -70.297657 59.916166 69.767792 -18.401646 -8.339472 -23.764184 0.000000 0.000000 0.000000 0.000000 0.000000 0.000000 -2.767536 34.637820 30.249388 -44.475486 -11.081023 -38.796420 -7.971062 -32.609529 -22.909144 9.892934 -8.582159 -11.080852 0.000000 0.000000 0.000000 0.000000 0.000000 0.000000 16.897114 -32.044373 58.743496 18.179197 12.128123 6.242365 -58.230169 -53.975947 -48.422241 0.000000 0.000000 0.000000 33.273834 -31.497770 68.580334 -14.091670 3.382587 -3.199714 14.269881 11.129009 -9.959214 0.000000 0.000000 0.000000
43.646906 30.940524 369.300945 31.345928 50.021045 -66.153726 -1.044299 0.426619 52.200247 -1.016706 -0.659981 1.241837 -2.590275 -16.138279 -5.348964 0.000000 0.000000 0.000000 -25.952827 58.914889 -38.990264 154.145330 -15.094278 92.163753 -36.743692 62.739641 47.483483 -12.779080 -31.535558 -22.469009 0.000000 0.000000 0.000000 0.000000 0.000000 0.000000 -3.166131 35.286508 30.650589 -43.882169 -11.922071 -39.423724 -12.949645 -20.433598 -17.150390 15.937287 -20.655449 -14.679338 0.000000 0.000000 0.000000 0.000000 0.000000 0.000000 10.535744 -28.668383 55.995734 16.357995 8.022699 5.528915 -70.215168 -58.623893 -64.534206 0.000000 0.000000 0.000000 31.936127 -34.174536 66.334776 -14.533883 2.286405 -2.733416 18.929875 30.503790 -14.031629 0.000000 0.000000 0.000000
44.590034 30.106918 368.479650 31.741419 49.355261 -61.793298 -1.495232 0.736589 47.690351 -1.302161 -0.399025 1.031111 -5.065048 -14.609383 -7.417431 0.000000 0.000000 0.000000 -27.516181 58.340514 -38.389151 128.776836 -34.475351 90.805947 -21.705798 52.371843 36.205635 -12.127074 -38.051122 -21.268122 0.000000 0.000000 0.000000 0.000000 0.000000 0.000000 -5.645236 36.525978 30.543327 -40.958102 -13.939491 -38.859301 -18.433565 -14.554132 -12.273185 20.222992 -26.852582 -19.793462 0.000000 0.000000 0.000000 0.000000 0.000000 0.000000 2.793089 -24.511420 51.391217 14.643450 2.660514 4.103899 -79.425124 -60.614362 -76.777169 0.000000 0.000000 0.000000 28.553609 -38.224812 60.926564 -15.081122 0.326848 -2.110205 11.913749 64.996816 -7.521496 0.000000 0.000000 0.000000
45.511914 29.000035 368.207769 31.575657 48.124465 -50.443308 -1.759528 1.433305 36.667419 -1.666222 0.066991 0.725100 -6.762363 -12.777442 -8.999292 0.000000 0.000000 0.000000 -29.893332 56.990573 -36.844684 117.237500 -38.994654 84.047390 -24.825669 48.603582 37.450609 -5.476477 -40.027686 -17.323795 0.000000 0.000000 0.000000 0.000000 0.000000 0.000000 -10.418274 36.882514 29.191437 -34.593119 -18.439238 -35.812764 -16.770498 -21.581205 -18.088625 17.185537 -21.674103 -15.360835 0.000000 0.000000 0.000000 0.000000 0.000000 0.000000 -6.486853 -19.231069 41.772089 14.045899 -2.919601 1.572874 -82.231242 -61.044007 -81.049079 0.000000 0.000000 0.000000 18.192954 -43.964932 45.869255 -16.786336 -3.118623 -1.391063 169.802605 82.199409 -162.918688 0.000000 0.000000 0.000000
45.995506 28.020658 367.946119 31.253913 47.382202 -32.477572 -1.305305 2.018364 19.058103 -1.691728 0.607911 0.604295 -8.975049 -11.010218 -10.797851 0.000000 0.000000 0.000000 -30.219909 56.088494 -36.318514 114.583640 -39.300904 81.707813 -27.461784 46.806691 38.216738 -2.831613 -38.376123 -14.800813 0.000000 0.000000 0.000000 0.000000 0.000000 0.000000 -14.644779 39.248716 29.204902 -29.907532 -22.719917 -34.351600 -14.981704 -29.147652 -25.456584 14.234321 -19.023492 -11.134873 0.000000 0.000000 0.000000 0.000000 0.000000 0.000000 -14.027874 -9.839388 26.690515 12.766939 -9.868578 -0.482043 -78.488424 -60.865088 -77.310465 0.000000 0.000000 0.000000 -0.598184 -46.708917 18.891579 -18.592680 -7.744402 -0.378455 -145.005426 69.682016 154.011029 0.000000 0.000000 0.000000
45.871905 27.645652 367.215921 31.141457 47.943052 -35.977046 -1.098536 1.528110 22.599261 -1.535211 1.004656 0.615005 -11.700124 -10.284505 -12.654219 0.000000 0.000000 0.000000 -28.337809 56.520225 -37.385268 114.780203 -39.083754 82.704196 -31.607934 47.519005 41.120468 -2.539556 -39.405642 -14.464681 0.000000 0.000000 0.000000 0.000000 0.000000 0.000000 -19.308888 40.476313 28.690074 -25.486576 -29.101644 -32.956845 -12.420703 -36.329267 -31.865945 10.337881 -15.233438 -4.631584 0.000000 0.000000 0.000000 0.000000 0.000000 0.000000 -13.355308 -8.166796 30.064665 11.709055 -12.921110 0.199044 -72.503471 -59.959745 -69.401611 0.000000 0.000000 0.000000 4.307260 -46.232030 24.755046 -21.684839 -12.721866 -1.382168 -125.141836 72.616950 136.956292 0.000000 0.000000 0.000000
45.449340 28.373258 367.125619 30.367047 48.910436 -47.410424 -0.973009 0.701219 34.217676 -1.198484 1.107674 0.756186 -10.809526 -9.984846 -12.327042 0.000000 0.000000 0.000000 -28.774281 52.450527 -35.819532 107.283140 -40.189590 76.038614 -23.398645 44.849879 36.954508 -3.822760 -33.495611 -13.727711 0.000000 0.000000 0.000000 0.000000 0.000000 0.000000 -24.214365 41.324475 28.116895 -21.851817 -37.051504 -31.852013 -10.131498 -39.937638 -33.006689 6.770362 -11.876182 -1.199261 0.000000 0.000000 0.000000 0.000000 0.000000 0.000000 -9.224600 -9.802214 39.078903 10.761084 -12.537815 3.285027 -63.293342 -57.797367 -57.218436 0.000000 0.000000 0.000000 17.846556 -42.803817 43.245087 -25.220492 -16.845351 -3.709462 15.784506 80.186433 -2.404974 0.000000 0.000000 0.000000
45.063523 29.133657 367.030571 30.011025 49.896280 -46.455242 -0.767762 0.414045 33.173035 -0.879860 0.884790 0.964543 -8.524706 -10.889397 -10.858534 0.000000 0.000000 0.000000 -30.291610 52.457601 -35.641777 106.104088 -40.046268 74.759510 -16.029861 43.988188 33.429305 -8.241640 -30.431926 -15.134079 0.000000 0.000000 0.000000 0.000000 0.000000 0.000000 -28.173151 41.748535 27.379262 -19.939934 -45.346738 -32.363895 -7.639435 -39.958618 -31.218872 4.120771 -10.330402 0.759287 0.000000 0.000000 0.000000 0.000000 0.000000 0.000000 -8.402171 -10.287678 38.228849 10.810178 -12.396952 3.387133 -53.890737 -53.673672 -43.698636 0.000000 0.000000 0.000000 18.427914 -42.995791 42.460055 -26.438528 -18.337245 -3.950423 29.649815 44.154638 -16.308482 0.000000 0.000000 0.000000
